<svg width="110" height="110" viewBox="0 0 110 110" fill="none" xmlns="http://www.w3.org/2000/svg">
<circle cx="55" cy="55" r="54.5" stroke="white"/>
<path d="M21 69.4098V40.7052C21 36.8462 25.1861 34.4419 28.5194 36.3863L55.0159 51.8426C58.448 53.8447 58.2865 58.8568 54.7327 60.6337L28.2361 73.882C24.9116 75.5442 21 73.1267 21 69.4098Z" stroke="#FCFCFC"/>
<path d="M68.5 73.25V36.25C68.5 33.9028 70.4028 32 72.75 32C75.0972 32 77 33.9028 77 36.25V73.25C77 75.5972 75.0972 77.5 72.75 77.5C70.4028 77.5 68.5 75.5972 68.5 73.25Z" stroke="#FCFCFC"/>
<path d="M80 73.25V36.25C80 33.9028 81.9028 32 84.25 32C86.5972 32 88.5 33.9028 88.5 36.25V73.25C88.5 75.5972 86.5972 77.5 84.25 77.5C81.9028 77.5 80 75.5972 80 73.25Z" stroke="#FCFCFC"/>
</svg>
