<svg width="142" height="288" viewBox="0 0 142 288" fill="none" xmlns="http://www.w3.org/2000/svg">
<g style="mix-blend-mode:screen">
<path d="M0 82.2856L0 54.8571L68.5714 0L141.714 54.8571V82.2856L68.5714 27.4285L0 82.2856Z" fill="url(#paint0_linear_40_497)"/>
<path d="M0 150.858L0 123.43L68.5714 68.5728L141.714 123.43V150.858L68.5714 96.0013L0 150.858Z" fill="url(#paint1_linear_40_497)"/>
<path d="M0 219.429L0 192.001L68.5714 137.144L141.714 192.001V219.429L68.5714 164.572L0 219.429Z" fill="url(#paint2_linear_40_497)"/>
<path d="M0 288L0 260.571L68.5714 205.714L141.714 260.571V288L68.5714 233.143L0 288Z" fill="url(#paint3_linear_40_497)"/>
</g>
<defs>
<linearGradient id="paint0_linear_40_497" x1="92.4444" y1="16.5079" x2="91.7957" y2="82.4915" gradientUnits="userSpaceOnUse">
<stop stop-color="#465FAD"/>
<stop offset="1" stop-color="#2E4DA7" stop-opacity="0.08"/>
</linearGradient>
<linearGradient id="paint1_linear_40_497" x1="92.4444" y1="85.0807" x2="91.7957" y2="151.064" gradientUnits="userSpaceOnUse">
<stop stop-color="#465FAD"/>
<stop offset="1" stop-color="#2E4DA7" stop-opacity="0.08"/>
</linearGradient>
<linearGradient id="paint2_linear_40_497" x1="92.4444" y1="153.651" x2="91.7957" y2="219.635" gradientUnits="userSpaceOnUse">
<stop stop-color="#465FAD"/>
<stop offset="1" stop-color="#2E4DA7" stop-opacity="0.08"/>
</linearGradient>
<linearGradient id="paint3_linear_40_497" x1="92.4444" y1="222.222" x2="91.7957" y2="288.206" gradientUnits="userSpaceOnUse">
<stop stop-color="#465FAD"/>
<stop offset="1" stop-color="#2E4DA7" stop-opacity="0.08"/>
</linearGradient>
</defs>
</svg>
