<svg width="142" height="288" viewBox="0 0 142 288" fill="none" xmlns="http://www.w3.org/2000/svg">
<g style="mix-blend-mode:screen">
<path d="M0 205.714L0 233.143L68.5714 288L141.714 233.143V205.714L68.5714 260.571L0 205.714Z" fill="url(#paint0_linear_67_115)"/>
<path d="M0 137.142L0 164.571L68.5714 219.428L141.714 164.571V137.142L68.5714 191.999L0 137.142Z" fill="url(#paint1_linear_67_115)"/>
<path d="M0 68.5708L0 95.9994L68.5714 150.856L141.714 95.9994V68.5708L68.5714 123.428L0 68.5708Z" fill="url(#paint2_linear_67_115)"/>
<path d="M0 1.52588e-05L0 27.4286L68.5714 82.2856L141.714 27.4286V1.52588e-05L68.5714 54.8571L0 1.52588e-05Z" fill="url(#paint3_linear_67_115)"/>
</g>
<defs>
<linearGradient id="paint0_linear_67_115" x1="92.4444" y1="271.492" x2="91.7957" y2="205.509" gradientUnits="userSpaceOnUse">
<stop stop-color="#465FAD"/>
<stop offset="1" stop-color="#2E4DA7" stop-opacity="0.08"/>
</linearGradient>
<linearGradient id="paint1_linear_67_115" x1="92.4444" y1="202.92" x2="91.7957" y2="136.936" gradientUnits="userSpaceOnUse">
<stop stop-color="#465FAD"/>
<stop offset="1" stop-color="#2E4DA7" stop-opacity="0.08"/>
</linearGradient>
<linearGradient id="paint2_linear_67_115" x1="92.4444" y1="134.349" x2="91.7957" y2="68.365" gradientUnits="userSpaceOnUse">
<stop stop-color="#465FAD"/>
<stop offset="1" stop-color="#2E4DA7" stop-opacity="0.08"/>
</linearGradient>
<linearGradient id="paint3_linear_67_115" x1="92.4444" y1="65.7777" x2="91.7957" y2="-0.205836" gradientUnits="userSpaceOnUse">
<stop stop-color="#465FAD"/>
<stop offset="1" stop-color="#2E4DA7" stop-opacity="0.08"/>
</linearGradient>
</defs>
</svg>
